<mxfile host="app.diagrams.net" modified="2023-09-14T05:31:11.777Z" agent="Mozilla/5.0 (Windows NT 10.0; Win64; x64) AppleWebKit/537.36 (KHTML, like Gecko) Chrome/117.0.0.0 Safari/537.36" etag="slr8lu7ByR342C7G0o-t" version="21.7.4" type="device">
  <diagram name="Page-1" id="leBDZs9pmWQfGz5eFpR0">
    <mxGraphModel dx="1421" dy="768" grid="1" gridSize="10" guides="1" tooltips="1" connect="1" arrows="1" fold="1" page="1" pageScale="1" pageWidth="850" pageHeight="1100" math="0" shadow="0">
      <root>
        <mxCell id="0" />
        <mxCell id="1" parent="0" />
        <mxCell id="RfIov9RQJtb7NfQ5m--m-50" value="&lt;font style=&quot;font-size: 8px;&quot;&gt;3mm&lt;/font&gt;" style="text;html=1;align=center;verticalAlign=middle;resizable=0;points=[];autosize=1;strokeColor=none;fillColor=none;" parent="1" vertex="1">
          <mxGeometry x="645" y="1346" width="40" height="30" as="geometry" />
        </mxCell>
        <mxCell id="RfIov9RQJtb7NfQ5m--m-1" value="" style="rounded=0;whiteSpace=wrap;html=1;" parent="1" vertex="1">
          <mxGeometry x="203" y="290" width="320" height="400" as="geometry" />
        </mxCell>
        <mxCell id="RfIov9RQJtb7NfQ5m--m-2" value="Back" style="text;html=1;align=center;verticalAlign=middle;resizable=0;points=[];autosize=1;strokeColor=none;fillColor=none;" parent="1" vertex="1">
          <mxGeometry x="338" y="230" width="50" height="30" as="geometry" />
        </mxCell>
        <mxCell id="RfIov9RQJtb7NfQ5m--m-3" value="Front" style="text;html=1;align=center;verticalAlign=middle;resizable=0;points=[];autosize=1;strokeColor=none;fillColor=none;" parent="1" vertex="1">
          <mxGeometry x="773" y="230" width="50" height="30" as="geometry" />
        </mxCell>
        <mxCell id="RfIov9RQJtb7NfQ5m--m-4" value="Side" style="text;html=1;align=center;verticalAlign=middle;resizable=0;points=[];autosize=1;strokeColor=none;fillColor=none;" parent="1" vertex="1">
          <mxGeometry x="612" y="860" width="50" height="30" as="geometry" />
        </mxCell>
        <mxCell id="RfIov9RQJtb7NfQ5m--m-5" value="Side (x-ray)" style="text;html=1;align=center;verticalAlign=middle;resizable=0;points=[];autosize=1;strokeColor=none;fillColor=none;" parent="1" vertex="1">
          <mxGeometry x="1004" y="840" width="90" height="30" as="geometry" />
        </mxCell>
        <mxCell id="RfIov9RQJtb7NfQ5m--m-6" value="" style="endArrow=classic;startArrow=classic;html=1;rounded=0;" parent="1" edge="1">
          <mxGeometry width="50" height="50" relative="1" as="geometry">
            <mxPoint x="203" y="700" as="sourcePoint" />
            <mxPoint x="523" y="700" as="targetPoint" />
          </mxGeometry>
        </mxCell>
        <mxCell id="RfIov9RQJtb7NfQ5m--m-7" value="6.6cm" style="text;html=1;align=center;verticalAlign=middle;resizable=0;points=[];autosize=1;strokeColor=none;fillColor=none;" parent="1" vertex="1">
          <mxGeometry x="333" y="700" width="60" height="30" as="geometry" />
        </mxCell>
        <mxCell id="RfIov9RQJtb7NfQ5m--m-8" value="" style="ellipse;whiteSpace=wrap;html=1;aspect=fixed;strokeColor=#000000;fillColor=#000000;" parent="1" vertex="1">
          <mxGeometry x="224" y="311" width="20" height="20" as="geometry" />
        </mxCell>
        <mxCell id="RfIov9RQJtb7NfQ5m--m-11" value="" style="endArrow=classic;startArrow=classic;html=1;rounded=0;strokeColor=#FF0000;" parent="1" edge="1">
          <mxGeometry width="50" height="50" relative="1" as="geometry">
            <mxPoint x="234" y="320.71000000000004" as="sourcePoint" />
            <mxPoint x="204" y="321.14" as="targetPoint" />
          </mxGeometry>
        </mxCell>
        <mxCell id="RfIov9RQJtb7NfQ5m--m-13" value="" style="ellipse;whiteSpace=wrap;html=1;aspect=fixed;strokeColor=#000000;fillColor=#000000;" parent="1" vertex="1">
          <mxGeometry x="483" y="310" width="20" height="20" as="geometry" />
        </mxCell>
        <mxCell id="RfIov9RQJtb7NfQ5m--m-14" value="" style="endArrow=classic;startArrow=classic;html=1;rounded=0;strokeColor=#FF0000;" parent="1" edge="1">
          <mxGeometry width="50" height="50" relative="1" as="geometry">
            <mxPoint x="523" y="319.71000000000004" as="sourcePoint" />
            <mxPoint x="493" y="320.14" as="targetPoint" />
          </mxGeometry>
        </mxCell>
        <mxCell id="RfIov9RQJtb7NfQ5m--m-20" value="8mm" style="text;html=1;align=center;verticalAlign=middle;resizable=0;points=[];autosize=1;strokeColor=none;fillColor=none;fontSize=8;" parent="1" vertex="1">
          <mxGeometry x="489" y="299" width="40" height="20" as="geometry" />
        </mxCell>
        <mxCell id="RfIov9RQJtb7NfQ5m--m-21" value="8mm" style="text;html=1;align=center;verticalAlign=middle;resizable=0;points=[];autosize=1;strokeColor=none;fillColor=none;fontSize=8;" parent="1" vertex="1">
          <mxGeometry x="196" y="301" width="40" height="20" as="geometry" />
        </mxCell>
        <mxCell id="RfIov9RQJtb7NfQ5m--m-22" value="" style="rounded=0;whiteSpace=wrap;html=1;" parent="1" vertex="1">
          <mxGeometry x="638" y="290" width="320" height="400" as="geometry" />
        </mxCell>
        <mxCell id="-TCQpDja9yla5WcH1eOq-5" value="" style="rounded=0;whiteSpace=wrap;html=1;" parent="1" vertex="1">
          <mxGeometry x="638" y="290" width="10" height="400" as="geometry" />
        </mxCell>
        <mxCell id="-TCQpDja9yla5WcH1eOq-6" value="" style="rounded=0;whiteSpace=wrap;html=1;" parent="1" vertex="1">
          <mxGeometry x="948" y="290" width="10" height="400" as="geometry" />
        </mxCell>
        <mxCell id="RfIov9RQJtb7NfQ5m--m-23" value="" style="rounded=0;whiteSpace=wrap;html=1;" parent="1" vertex="1">
          <mxGeometry x="638" y="290" width="85" height="400" as="geometry" />
        </mxCell>
        <mxCell id="RfIov9RQJtb7NfQ5m--m-25" value="" style="rounded=0;whiteSpace=wrap;html=1;" parent="1" vertex="1">
          <mxGeometry x="873" y="290" width="85" height="400" as="geometry" />
        </mxCell>
        <mxCell id="RfIov9RQJtb7NfQ5m--m-26" value="" style="endArrow=classic;startArrow=classic;html=1;rounded=0;" parent="1" edge="1">
          <mxGeometry width="50" height="50" relative="1" as="geometry">
            <mxPoint x="723" y="700" as="sourcePoint" />
            <mxPoint x="873" y="700" as="targetPoint" />
          </mxGeometry>
        </mxCell>
        <mxCell id="RfIov9RQJtb7NfQ5m--m-27" value="32mm" style="text;html=1;align=center;verticalAlign=middle;resizable=0;points=[];autosize=1;strokeColor=none;fillColor=none;" parent="1" vertex="1">
          <mxGeometry x="768" y="700" width="60" height="30" as="geometry" />
        </mxCell>
        <mxCell id="RfIov9RQJtb7NfQ5m--m-28" value="" style="rounded=0;whiteSpace=wrap;html=1;" parent="1" vertex="1">
          <mxGeometry x="723" y="660" width="150" height="30" as="geometry" />
        </mxCell>
        <mxCell id="RfIov9RQJtb7NfQ5m--m-29" value="" style="ellipse;whiteSpace=wrap;html=1;aspect=fixed;fillColor=#000000;" parent="1" vertex="1">
          <mxGeometry x="338" y="585" width="50" height="50" as="geometry" />
        </mxCell>
        <mxCell id="RfIov9RQJtb7NfQ5m--m-30" value="" style="endArrow=classic;startArrow=classic;html=1;rounded=0;strokeColor=#FF0000;" parent="1" edge="1">
          <mxGeometry width="50" height="50" relative="1" as="geometry">
            <mxPoint x="362.65999999999997" y="692.5" as="sourcePoint" />
            <mxPoint x="362.66" y="607.5" as="targetPoint" />
          </mxGeometry>
        </mxCell>
        <mxCell id="RfIov9RQJtb7NfQ5m--m-31" value="&lt;font style=&quot;font-size: 8px;&quot;&gt;2.8cm&lt;/font&gt;" style="text;html=1;align=center;verticalAlign=middle;resizable=0;points=[];autosize=1;strokeColor=none;fillColor=none;" parent="1" vertex="1">
          <mxGeometry x="320" y="650" width="50" height="30" as="geometry" />
        </mxCell>
        <mxCell id="RfIov9RQJtb7NfQ5m--m-32" value="" style="endArrow=classic;startArrow=classic;html=1;rounded=0;strokeColor=#FF0000;" parent="1" edge="1">
          <mxGeometry width="50" height="50" relative="1" as="geometry">
            <mxPoint x="388" y="580" as="sourcePoint" />
            <mxPoint x="338" y="580" as="targetPoint" />
          </mxGeometry>
        </mxCell>
        <mxCell id="RfIov9RQJtb7NfQ5m--m-33" value="&lt;font style=&quot;font-size: 8px;&quot;&gt;9mm&lt;/font&gt;" style="text;html=1;align=center;verticalAlign=middle;resizable=0;points=[];autosize=1;strokeColor=none;fillColor=none;" parent="1" vertex="1">
          <mxGeometry x="343" y="554" width="40" height="30" as="geometry" />
        </mxCell>
        <mxCell id="RfIov9RQJtb7NfQ5m--m-34" value="" style="ellipse;whiteSpace=wrap;html=1;aspect=fixed;fillColor=#000000;" parent="1" vertex="1">
          <mxGeometry x="773" y="585" width="50" height="50" as="geometry" />
        </mxCell>
        <mxCell id="RfIov9RQJtb7NfQ5m--m-35" value="" style="endArrow=classic;startArrow=classic;html=1;rounded=0;" parent="1" edge="1">
          <mxGeometry width="50" height="50" relative="1" as="geometry">
            <mxPoint x="730" y="660" as="sourcePoint" />
            <mxPoint x="730" y="690" as="targetPoint" />
          </mxGeometry>
        </mxCell>
        <mxCell id="RfIov9RQJtb7NfQ5m--m-36" value="&lt;font style=&quot;font-size: 8px;&quot;&gt;12mm&lt;/font&gt;" style="text;html=1;align=center;verticalAlign=middle;resizable=0;points=[];autosize=1;strokeColor=none;fillColor=none;" parent="1" vertex="1">
          <mxGeometry x="723" y="660" width="50" height="30" as="geometry" />
        </mxCell>
        <mxCell id="RfIov9RQJtb7NfQ5m--m-43" value="" style="endArrow=classic;startArrow=classic;html=1;rounded=0;" parent="1" edge="1">
          <mxGeometry width="50" height="50" relative="1" as="geometry">
            <mxPoint x="638" y="283" as="sourcePoint" />
            <mxPoint x="723" y="283" as="targetPoint" />
          </mxGeometry>
        </mxCell>
        <mxCell id="RfIov9RQJtb7NfQ5m--m-44" value="1.7cm" style="text;html=1;align=center;verticalAlign=middle;resizable=0;points=[];autosize=1;strokeColor=none;fillColor=none;" parent="1" vertex="1">
          <mxGeometry x="654" y="260" width="60" height="30" as="geometry" />
        </mxCell>
        <mxCell id="RfIov9RQJtb7NfQ5m--m-45" value="" style="endArrow=classic;startArrow=classic;html=1;rounded=0;" parent="1" edge="1">
          <mxGeometry width="50" height="50" relative="1" as="geometry">
            <mxPoint x="873" y="283" as="sourcePoint" />
            <mxPoint x="958" y="283" as="targetPoint" />
          </mxGeometry>
        </mxCell>
        <mxCell id="RfIov9RQJtb7NfQ5m--m-46" value="1.7cm" style="text;html=1;align=center;verticalAlign=middle;resizable=0;points=[];autosize=1;strokeColor=none;fillColor=none;" parent="1" vertex="1">
          <mxGeometry x="885.5" y="260" width="60" height="30" as="geometry" />
        </mxCell>
        <mxCell id="RfIov9RQJtb7NfQ5m--m-47" value="" style="rounded=0;whiteSpace=wrap;html=1;" parent="1" vertex="1">
          <mxGeometry x="655" y="910" width="20" height="430" as="geometry" />
        </mxCell>
        <mxCell id="RfIov9RQJtb7NfQ5m--m-48" value="" style="rounded=0;whiteSpace=wrap;html=1;" parent="1" vertex="1">
          <mxGeometry x="592" y="910" width="63" height="430" as="geometry" />
        </mxCell>
        <mxCell id="RfIov9RQJtb7NfQ5m--m-49" value="" style="endArrow=classic;startArrow=classic;html=1;rounded=0;" parent="1" edge="1">
          <mxGeometry width="50" height="50" relative="1" as="geometry">
            <mxPoint x="655" y="1350" as="sourcePoint" />
            <mxPoint x="675" y="1350" as="targetPoint" />
          </mxGeometry>
        </mxCell>
        <mxCell id="RfIov9RQJtb7NfQ5m--m-51" value="" style="endArrow=classic;startArrow=classic;html=1;rounded=0;" parent="1" edge="1">
          <mxGeometry width="50" height="50" relative="1" as="geometry">
            <mxPoint x="591" y="1376" as="sourcePoint" />
            <mxPoint x="679" y="1376" as="targetPoint" />
          </mxGeometry>
        </mxCell>
        <mxCell id="RfIov9RQJtb7NfQ5m--m-52" value="&lt;font style=&quot;font-size: 8px;&quot;&gt;23mm&lt;/font&gt;" style="text;html=1;align=center;verticalAlign=middle;resizable=0;points=[];autosize=1;strokeColor=none;fillColor=none;" parent="1" vertex="1">
          <mxGeometry x="605" y="1372" width="50" height="30" as="geometry" />
        </mxCell>
        <mxCell id="RfIov9RQJtb7NfQ5m--m-53" value="" style="endArrow=classic;startArrow=classic;html=1;rounded=0;" parent="1" edge="1">
          <mxGeometry width="50" height="50" relative="1" as="geometry">
            <mxPoint x="691" y="910" as="sourcePoint" />
            <mxPoint x="690" y="1340" as="targetPoint" />
          </mxGeometry>
        </mxCell>
        <mxCell id="RfIov9RQJtb7NfQ5m--m-56" value="" style="endArrow=classic;startArrow=classic;html=1;rounded=0;" parent="1" edge="1">
          <mxGeometry width="50" height="50" relative="1" as="geometry">
            <mxPoint x="593.5" y="1346" as="sourcePoint" />
            <mxPoint x="653.5" y="1346" as="targetPoint" />
          </mxGeometry>
        </mxCell>
        <mxCell id="RfIov9RQJtb7NfQ5m--m-57" value="&lt;font style=&quot;font-size: 8px;&quot;&gt;20mm&lt;/font&gt;" style="text;html=1;align=center;verticalAlign=middle;resizable=0;points=[];autosize=1;strokeColor=none;fillColor=none;" parent="1" vertex="1">
          <mxGeometry x="598.5" y="1340" width="50" height="30" as="geometry" />
        </mxCell>
        <mxCell id="RfIov9RQJtb7NfQ5m--m-58" value="&lt;font style=&quot;font-size: 8px;&quot;&gt;3mm&lt;/font&gt;" style="text;html=1;align=center;verticalAlign=middle;resizable=0;points=[];autosize=1;strokeColor=none;fillColor=none;" parent="1" vertex="1">
          <mxGeometry x="1062" y="1346" width="40" height="30" as="geometry" />
        </mxCell>
        <mxCell id="RfIov9RQJtb7NfQ5m--m-59" value="" style="rounded=0;whiteSpace=wrap;html=1;fillColor=#f5f5f5;fontColor=#333333;strokeColor=#666666;" parent="1" vertex="1">
          <mxGeometry x="1070" y="910" width="22" height="430" as="geometry" />
        </mxCell>
        <mxCell id="RfIov9RQJtb7NfQ5m--m-60" value="" style="rounded=0;whiteSpace=wrap;html=1;" parent="1" vertex="1">
          <mxGeometry x="1010" y="910" width="60" height="430" as="geometry" />
        </mxCell>
        <mxCell id="RfIov9RQJtb7NfQ5m--m-61" value="" style="endArrow=classic;startArrow=classic;html=1;rounded=0;" parent="1" edge="1">
          <mxGeometry width="50" height="50" relative="1" as="geometry">
            <mxPoint x="1072" y="1350" as="sourcePoint" />
            <mxPoint x="1092" y="1350" as="targetPoint" />
          </mxGeometry>
        </mxCell>
        <mxCell id="RfIov9RQJtb7NfQ5m--m-62" value="" style="endArrow=classic;startArrow=classic;html=1;rounded=0;" parent="1" edge="1">
          <mxGeometry width="50" height="50" relative="1" as="geometry">
            <mxPoint x="1008" y="1376" as="sourcePoint" />
            <mxPoint x="1096" y="1376" as="targetPoint" />
          </mxGeometry>
        </mxCell>
        <mxCell id="RfIov9RQJtb7NfQ5m--m-63" value="&lt;font style=&quot;font-size: 8px;&quot;&gt;23mm&lt;/font&gt;" style="text;html=1;align=center;verticalAlign=middle;resizable=0;points=[];autosize=1;strokeColor=none;fillColor=none;" parent="1" vertex="1">
          <mxGeometry x="1022" y="1372" width="50" height="30" as="geometry" />
        </mxCell>
        <mxCell id="RfIov9RQJtb7NfQ5m--m-66" value="" style="endArrow=classic;startArrow=classic;html=1;rounded=0;" parent="1" edge="1">
          <mxGeometry width="50" height="50" relative="1" as="geometry">
            <mxPoint x="1010.5" y="1346" as="sourcePoint" />
            <mxPoint x="1070.5" y="1346" as="targetPoint" />
          </mxGeometry>
        </mxCell>
        <mxCell id="RfIov9RQJtb7NfQ5m--m-67" value="&lt;font style=&quot;font-size: 8px;&quot;&gt;20mm&lt;/font&gt;" style="text;html=1;align=center;verticalAlign=middle;resizable=0;points=[];autosize=1;strokeColor=none;fillColor=none;" parent="1" vertex="1">
          <mxGeometry x="1015.5" y="1340" width="50" height="30" as="geometry" />
        </mxCell>
        <mxCell id="RfIov9RQJtb7NfQ5m--m-69" value="" style="rounded=0;whiteSpace=wrap;html=1;fillColor=#f5f5f5;fontColor=#333333;strokeColor=#666666;" parent="1" vertex="1">
          <mxGeometry x="1010" y="910" width="20" height="430" as="geometry" />
        </mxCell>
        <mxCell id="RfIov9RQJtb7NfQ5m--m-71" value="Front (x-ray)" style="text;html=1;align=center;verticalAlign=middle;resizable=0;points=[];autosize=1;strokeColor=none;fillColor=none;" parent="1" vertex="1">
          <mxGeometry x="1154" y="230" width="90" height="30" as="geometry" />
        </mxCell>
        <mxCell id="RfIov9RQJtb7NfQ5m--m-72" value="" style="rounded=0;whiteSpace=wrap;html=1;" parent="1" vertex="1">
          <mxGeometry x="1033" y="290" width="320" height="400" as="geometry" />
        </mxCell>
        <mxCell id="RfIov9RQJtb7NfQ5m--m-78" value="" style="ellipse;whiteSpace=wrap;html=1;aspect=fixed;fillColor=#000000;" parent="1" vertex="1">
          <mxGeometry x="1168" y="585" width="50" height="50" as="geometry" />
        </mxCell>
        <mxCell id="RfIov9RQJtb7NfQ5m--m-90" value="" style="rounded=0;whiteSpace=wrap;html=1;" parent="1" vertex="1">
          <mxGeometry x="1343" y="290" width="10" height="400" as="geometry" />
        </mxCell>
        <mxCell id="RfIov9RQJtb7NfQ5m--m-91" value="" style="rounded=0;whiteSpace=wrap;html=1;" parent="1" vertex="1">
          <mxGeometry x="1033" y="290" width="10" height="400" as="geometry" />
        </mxCell>
        <mxCell id="RfIov9RQJtb7NfQ5m--m-92" value="" style="endArrow=classic;startArrow=classic;html=1;rounded=0;" parent="1" edge="1">
          <mxGeometry width="50" height="50" relative="1" as="geometry">
            <mxPoint x="1028" y="696.72" as="sourcePoint" />
            <mxPoint x="1048" y="696.72" as="targetPoint" />
          </mxGeometry>
        </mxCell>
        <mxCell id="RfIov9RQJtb7NfQ5m--m-93" value="&lt;font style=&quot;font-size: 8px;&quot;&gt;3mm&lt;/font&gt;" style="text;html=1;align=center;verticalAlign=middle;resizable=0;points=[];autosize=1;strokeColor=none;fillColor=none;" parent="1" vertex="1">
          <mxGeometry x="1018" y="690" width="40" height="30" as="geometry" />
        </mxCell>
        <mxCell id="RfIov9RQJtb7NfQ5m--m-94" value="" style="endArrow=classic;startArrow=classic;html=1;rounded=0;" parent="1" edge="1">
          <mxGeometry width="50" height="50" relative="1" as="geometry">
            <mxPoint x="1338" y="696.72" as="sourcePoint" />
            <mxPoint x="1358" y="696.72" as="targetPoint" />
          </mxGeometry>
        </mxCell>
        <mxCell id="RfIov9RQJtb7NfQ5m--m-95" value="&lt;font style=&quot;font-size: 8px;&quot;&gt;3mm&lt;/font&gt;" style="text;html=1;align=center;verticalAlign=middle;resizable=0;points=[];autosize=1;strokeColor=none;fillColor=none;" parent="1" vertex="1">
          <mxGeometry x="1328" y="690" width="40" height="30" as="geometry" />
        </mxCell>
        <mxCell id="RfIov9RQJtb7NfQ5m--m-96" value="" style="endArrow=classic;startArrow=classic;html=1;rounded=0;" parent="1" edge="1">
          <mxGeometry width="50" height="50" relative="1" as="geometry">
            <mxPoint x="1010" y="898" as="sourcePoint" />
            <mxPoint x="1030" y="898" as="targetPoint" />
          </mxGeometry>
        </mxCell>
        <mxCell id="RfIov9RQJtb7NfQ5m--m-97" value="&lt;font style=&quot;font-size: 8px;&quot;&gt;3mm&lt;/font&gt;" style="text;html=1;align=center;verticalAlign=middle;resizable=0;points=[];autosize=1;strokeColor=none;fillColor=none;" parent="1" vertex="1">
          <mxGeometry x="1000" y="870" width="40" height="30" as="geometry" />
        </mxCell>
        <mxCell id="-TCQpDja9yla5WcH1eOq-1" value="" style="endArrow=classic;startArrow=classic;html=1;rounded=0;" parent="1" edge="1">
          <mxGeometry width="50" height="50" relative="1" as="geometry">
            <mxPoint x="530" y="690" as="sourcePoint" />
            <mxPoint x="530" y="290" as="targetPoint" />
          </mxGeometry>
        </mxCell>
        <mxCell id="-TCQpDja9yla5WcH1eOq-2" value="6.5cm" style="text;html=1;align=center;verticalAlign=middle;resizable=0;points=[];autosize=1;strokeColor=none;fillColor=none;" parent="1" vertex="1">
          <mxGeometry x="523" y="470" width="60" height="30" as="geometry" />
        </mxCell>
        <mxCell id="-TCQpDja9yla5WcH1eOq-3" value="" style="endArrow=classic;startArrow=classic;html=1;rounded=0;strokeColor=#FF0000;" parent="1" edge="1">
          <mxGeometry width="50" height="50" relative="1" as="geometry">
            <mxPoint x="233.82999999999998" y="321.00000000000006" as="sourcePoint" />
            <mxPoint x="233.82999999999998" y="291" as="targetPoint" />
          </mxGeometry>
        </mxCell>
        <mxCell id="-TCQpDja9yla5WcH1eOq-4" value="" style="endArrow=classic;startArrow=classic;html=1;rounded=0;strokeColor=#FF0000;" parent="1" edge="1">
          <mxGeometry width="50" height="50" relative="1" as="geometry">
            <mxPoint x="492.83" y="290" as="sourcePoint" />
            <mxPoint x="492.83" y="319.43" as="targetPoint" />
          </mxGeometry>
        </mxCell>
        <mxCell id="-TCQpDja9yla5WcH1eOq-18" value="" style="ellipse;whiteSpace=wrap;html=1;aspect=fixed;strokeColor=#000000;fillColor=#000000;" parent="1" vertex="1">
          <mxGeometry x="1058" y="310" width="20" height="20" as="geometry" />
        </mxCell>
        <mxCell id="-TCQpDja9yla5WcH1eOq-19" value="" style="ellipse;whiteSpace=wrap;html=1;aspect=fixed;strokeColor=#000000;fillColor=#000000;" parent="1" vertex="1">
          <mxGeometry x="1313" y="310" width="20" height="20" as="geometry" />
        </mxCell>
        <mxCell id="-TCQpDja9yla5WcH1eOq-24" value="6.5cm" style="text;html=1;align=center;verticalAlign=middle;resizable=0;points=[];autosize=1;strokeColor=none;fillColor=none;" parent="1" vertex="1">
          <mxGeometry x="690" y="1110" width="60" height="30" as="geometry" />
        </mxCell>
        <mxCell id="-TCQpDja9yla5WcH1eOq-25" value="" style="endArrow=classic;startArrow=classic;html=1;rounded=0;" parent="1" edge="1">
          <mxGeometry width="50" height="50" relative="1" as="geometry">
            <mxPoint x="1000" y="910" as="sourcePoint" />
            <mxPoint x="1000" y="1340" as="targetPoint" />
          </mxGeometry>
        </mxCell>
        <mxCell id="-TCQpDja9yla5WcH1eOq-29" value="" style="rounded=0;whiteSpace=wrap;html=1;fillColor=#000000;" parent="1" vertex="1">
          <mxGeometry x="1071" y="930" width="21" height="20" as="geometry" />
        </mxCell>
        <mxCell id="-TCQpDja9yla5WcH1eOq-35" value="" style="endArrow=classic;startArrow=classic;html=1;rounded=0;" parent="1" edge="1">
          <mxGeometry width="50" height="50" relative="1" as="geometry">
            <mxPoint x="1101.33" y="931" as="sourcePoint" />
            <mxPoint x="1101.33" y="951" as="targetPoint" />
          </mxGeometry>
        </mxCell>
        <mxCell id="-TCQpDja9yla5WcH1eOq-36" value="&lt;font style=&quot;font-size: 8px;&quot;&gt;4mm&lt;/font&gt;" style="text;html=1;align=center;verticalAlign=middle;resizable=0;points=[];autosize=1;strokeColor=none;fillColor=none;" parent="1" vertex="1">
          <mxGeometry x="1093" y="907" width="40" height="30" as="geometry" />
        </mxCell>
        <mxCell id="-TCQpDja9yla5WcH1eOq-45" value="" style="endArrow=classic;startArrow=classic;html=1;rounded=0;strokeColor=#FF0000;" parent="1" edge="1">
          <mxGeometry width="50" height="50" relative="1" as="geometry">
            <mxPoint x="1192.83" y="610" as="sourcePoint" />
            <mxPoint x="1192.83" y="690" as="targetPoint" />
          </mxGeometry>
        </mxCell>
        <mxCell id="-TCQpDja9yla5WcH1eOq-46" value="&lt;font style=&quot;font-size: 8px;&quot;&gt;28mm&lt;/font&gt;" style="text;html=1;align=center;verticalAlign=middle;resizable=0;points=[];autosize=1;strokeColor=none;fillColor=none;" parent="1" vertex="1">
          <mxGeometry x="1154" y="637" width="50" height="30" as="geometry" />
        </mxCell>
        <mxCell id="3w92pgBdkpCLudvpvPMc-3" value="5mm" style="text;html=1;align=center;verticalAlign=middle;resizable=0;points=[];autosize=1;strokeColor=none;fillColor=none;fontSize=8;" parent="1" vertex="1">
          <mxGeometry x="229" y="294" width="40" height="20" as="geometry" />
        </mxCell>
        <mxCell id="3w92pgBdkpCLudvpvPMc-4" value="5mm" style="text;html=1;align=center;verticalAlign=middle;resizable=0;points=[];autosize=1;strokeColor=none;fillColor=none;fontSize=8;" parent="1" vertex="1">
          <mxGeometry x="460" y="293" width="40" height="20" as="geometry" />
        </mxCell>
        <mxCell id="3w92pgBdkpCLudvpvPMc-5" value="" style="endArrow=classic;startArrow=classic;html=1;rounded=0;" parent="1" edge="1">
          <mxGeometry width="50" height="50" relative="1" as="geometry">
            <mxPoint x="631" y="690" as="sourcePoint" />
            <mxPoint x="631" y="290" as="targetPoint" />
          </mxGeometry>
        </mxCell>
        <mxCell id="3w92pgBdkpCLudvpvPMc-6" value="6.5cm" style="text;html=1;align=center;verticalAlign=middle;resizable=0;points=[];autosize=1;strokeColor=none;fillColor=none;" parent="1" vertex="1">
          <mxGeometry x="578" y="460" width="60" height="30" as="geometry" />
        </mxCell>
        <mxCell id="3w92pgBdkpCLudvpvPMc-10" value="6.5cm" style="text;html=1;align=center;verticalAlign=middle;resizable=0;points=[];autosize=1;strokeColor=none;fillColor=none;" parent="1" vertex="1">
          <mxGeometry x="934" y="1110" width="60" height="30" as="geometry" />
        </mxCell>
        <mxCell id="3w92pgBdkpCLudvpvPMc-11" value="" style="endArrow=classic;startArrow=classic;html=1;rounded=0;" parent="1" edge="1">
          <mxGeometry width="50" height="50" relative="1" as="geometry">
            <mxPoint x="1029.5" y="1313.52" as="sourcePoint" />
            <mxPoint x="1069.5" y="1313.52" as="targetPoint" />
          </mxGeometry>
        </mxCell>
        <mxCell id="3w92pgBdkpCLudvpvPMc-12" value="1.7cm" style="text;html=1;align=center;verticalAlign=middle;resizable=0;points=[];autosize=1;strokeColor=none;fillColor=none;fontSize=8;" parent="1" vertex="1">
          <mxGeometry x="1024" y="1295" width="50" height="20" as="geometry" />
        </mxCell>
      </root>
    </mxGraphModel>
  </diagram>
</mxfile>
